<mxfile host="app.diagrams.net" modified="2024-01-03T04:45:30.757Z" agent="Mozilla/5.0 (X11; Linux x86_64; rv:121.0) Gecko/20100101 Firefox/121.0" etag="hlb9I72XtvuZ56xky_Lq" version="22.1.16" type="device">
  <diagram id="R2lEEEUBdFMjLlhIrx00" name="Page-1">
    <mxGraphModel dx="1434" dy="1800" grid="1" gridSize="10" guides="1" tooltips="1" connect="1" arrows="1" fold="1" page="1" pageScale="1" pageWidth="850" pageHeight="1100" math="0" shadow="0" extFonts="Permanent Marker^https://fonts.googleapis.com/css?family=Permanent+Marker">
      <root>
        <mxCell id="0" />
        <mxCell id="1" parent="0" />
        <mxCell id="v6JsbG-RQpuHxTzYnyNn-28" style="edgeStyle=orthogonalEdgeStyle;rounded=0;orthogonalLoop=1;jettySize=auto;html=1;entryX=0.5;entryY=0;entryDx=0;entryDy=0;" parent="1" source="v6JsbG-RQpuHxTzYnyNn-1" target="v6JsbG-RQpuHxTzYnyNn-27" edge="1">
          <mxGeometry relative="1" as="geometry" />
        </mxCell>
        <mxCell id="v6JsbG-RQpuHxTzYnyNn-34" value="" style="edgeStyle=orthogonalEdgeStyle;rounded=0;orthogonalLoop=1;jettySize=auto;html=1;" parent="1" source="v6JsbG-RQpuHxTzYnyNn-1" target="v6JsbG-RQpuHxTzYnyNn-33" edge="1">
          <mxGeometry relative="1" as="geometry" />
        </mxCell>
        <mxCell id="v6JsbG-RQpuHxTzYnyNn-1" value="&lt;div&gt;公交公司&lt;/div&gt;" style="rounded=0;whiteSpace=wrap;html=1;" parent="1" vertex="1">
          <mxGeometry x="340" y="-60" width="120" height="60" as="geometry" />
        </mxCell>
        <mxCell id="v6JsbG-RQpuHxTzYnyNn-2" value="&lt;div&gt;车辆&lt;/div&gt;" style="rounded=0;whiteSpace=wrap;html=1;" parent="1" vertex="1">
          <mxGeometry x="590" y="370" width="120" height="60" as="geometry" />
        </mxCell>
        <mxCell id="v6JsbG-RQpuHxTzYnyNn-37" value="" style="edgeStyle=orthogonalEdgeStyle;rounded=0;orthogonalLoop=1;jettySize=auto;html=1;" parent="1" source="v6JsbG-RQpuHxTzYnyNn-3" target="v6JsbG-RQpuHxTzYnyNn-36" edge="1">
          <mxGeometry relative="1" as="geometry" />
        </mxCell>
        <mxCell id="v6JsbG-RQpuHxTzYnyNn-40" value="" style="edgeStyle=orthogonalEdgeStyle;rounded=0;orthogonalLoop=1;jettySize=auto;html=1;" parent="1" source="v6JsbG-RQpuHxTzYnyNn-3" target="v6JsbG-RQpuHxTzYnyNn-39" edge="1">
          <mxGeometry relative="1" as="geometry" />
        </mxCell>
        <mxCell id="v6JsbG-RQpuHxTzYnyNn-3" value="车队" style="rounded=0;whiteSpace=wrap;html=1;" parent="1" vertex="1">
          <mxGeometry x="340" y="160" width="120" height="60" as="geometry" />
        </mxCell>
        <mxCell id="v6JsbG-RQpuHxTzYnyNn-19" value="" style="edgeStyle=orthogonalEdgeStyle;rounded=0;orthogonalLoop=1;jettySize=auto;html=1;exitX=0.5;exitY=1;exitDx=0;exitDy=0;" parent="1" source="v6JsbG-RQpuHxTzYnyNn-42" target="v6JsbG-RQpuHxTzYnyNn-17" edge="1">
          <mxGeometry relative="1" as="geometry" />
        </mxCell>
        <mxCell id="v6JsbG-RQpuHxTzYnyNn-47" style="edgeStyle=orthogonalEdgeStyle;rounded=0;orthogonalLoop=1;jettySize=auto;html=1;entryX=0.5;entryY=0;entryDx=0;entryDy=0;" parent="1" source="v6JsbG-RQpuHxTzYnyNn-4" target="v6JsbG-RQpuHxTzYnyNn-20" edge="1">
          <mxGeometry relative="1" as="geometry" />
        </mxCell>
        <mxCell id="v6JsbG-RQpuHxTzYnyNn-4" value="司机" style="rounded=0;whiteSpace=wrap;html=1;" parent="1" vertex="1">
          <mxGeometry x="400" y="580" width="120" height="60" as="geometry" />
        </mxCell>
        <mxCell id="v6JsbG-RQpuHxTzYnyNn-32" value="" style="edgeStyle=orthogonalEdgeStyle;rounded=0;orthogonalLoop=1;jettySize=auto;html=1;" parent="1" source="v6JsbG-RQpuHxTzYnyNn-6" target="v6JsbG-RQpuHxTzYnyNn-30" edge="1">
          <mxGeometry relative="1" as="geometry" />
        </mxCell>
        <mxCell id="v6JsbG-RQpuHxTzYnyNn-43" style="edgeStyle=orthogonalEdgeStyle;rounded=0;orthogonalLoop=1;jettySize=auto;html=1;entryX=0.5;entryY=0;entryDx=0;entryDy=0;" parent="1" source="v6JsbG-RQpuHxTzYnyNn-6" target="v6JsbG-RQpuHxTzYnyNn-42" edge="1">
          <mxGeometry relative="1" as="geometry" />
        </mxCell>
        <mxCell id="v6JsbG-RQpuHxTzYnyNn-6" value="线路" style="whiteSpace=wrap;html=1;" parent="1" vertex="1">
          <mxGeometry x="340" y="370" width="120" height="60" as="geometry" />
        </mxCell>
        <mxCell id="v6JsbG-RQpuHxTzYnyNn-14" value="&lt;div&gt;队长&lt;/div&gt;" style="whiteSpace=wrap;html=1;" parent="1" vertex="1">
          <mxGeometry x="80" y="160" width="120" height="60" as="geometry" />
        </mxCell>
        <mxCell id="v6JsbG-RQpuHxTzYnyNn-46" style="edgeStyle=orthogonalEdgeStyle;rounded=0;orthogonalLoop=1;jettySize=auto;html=1;entryX=0.5;entryY=0;entryDx=0;entryDy=0;" parent="1" source="v6JsbG-RQpuHxTzYnyNn-17" target="v6JsbG-RQpuHxTzYnyNn-20" edge="1">
          <mxGeometry relative="1" as="geometry" />
        </mxCell>
        <mxCell id="v6JsbG-RQpuHxTzYnyNn-17" value="路队长" style="whiteSpace=wrap;html=1;" parent="1" vertex="1">
          <mxGeometry x="170" y="580" width="120" height="60" as="geometry" />
        </mxCell>
        <mxCell id="v6JsbG-RQpuHxTzYnyNn-20" value="违章" style="whiteSpace=wrap;html=1;" parent="1" vertex="1">
          <mxGeometry x="280" y="700" width="120" height="60" as="geometry" />
        </mxCell>
        <mxCell id="v6JsbG-RQpuHxTzYnyNn-29" style="edgeStyle=orthogonalEdgeStyle;rounded=0;orthogonalLoop=1;jettySize=auto;html=1;" parent="1" source="v6JsbG-RQpuHxTzYnyNn-27" target="v6JsbG-RQpuHxTzYnyNn-2" edge="1">
          <mxGeometry relative="1" as="geometry" />
        </mxCell>
        <mxCell id="v6JsbG-RQpuHxTzYnyNn-27" value="拥有" style="rhombus;whiteSpace=wrap;html=1;" parent="1" vertex="1">
          <mxGeometry x="610" y="30" width="80" height="80" as="geometry" />
        </mxCell>
        <mxCell id="v6JsbG-RQpuHxTzYnyNn-31" value="" style="edgeStyle=orthogonalEdgeStyle;rounded=0;orthogonalLoop=1;jettySize=auto;html=1;" parent="1" source="v6JsbG-RQpuHxTzYnyNn-30" target="v6JsbG-RQpuHxTzYnyNn-2" edge="1">
          <mxGeometry relative="1" as="geometry" />
        </mxCell>
        <mxCell id="v6JsbG-RQpuHxTzYnyNn-30" value="拥有" style="rhombus;whiteSpace=wrap;html=1;" parent="1" vertex="1">
          <mxGeometry x="485" y="360" width="80" height="80" as="geometry" />
        </mxCell>
        <mxCell id="v6JsbG-RQpuHxTzYnyNn-35" value="" style="edgeStyle=orthogonalEdgeStyle;rounded=0;orthogonalLoop=1;jettySize=auto;html=1;" parent="1" source="v6JsbG-RQpuHxTzYnyNn-33" target="v6JsbG-RQpuHxTzYnyNn-3" edge="1">
          <mxGeometry relative="1" as="geometry" />
        </mxCell>
        <mxCell id="v6JsbG-RQpuHxTzYnyNn-33" value="拥有" style="rhombus;whiteSpace=wrap;html=1;" parent="1" vertex="1">
          <mxGeometry x="360" y="40" width="80" height="80" as="geometry" />
        </mxCell>
        <mxCell id="v6JsbG-RQpuHxTzYnyNn-38" value="" style="edgeStyle=orthogonalEdgeStyle;rounded=0;orthogonalLoop=1;jettySize=auto;html=1;" parent="1" source="v6JsbG-RQpuHxTzYnyNn-36" target="v6JsbG-RQpuHxTzYnyNn-14" edge="1">
          <mxGeometry relative="1" as="geometry" />
        </mxCell>
        <mxCell id="v6JsbG-RQpuHxTzYnyNn-36" value="拥有" style="rhombus;whiteSpace=wrap;html=1;" parent="1" vertex="1">
          <mxGeometry x="230" y="150" width="80" height="80" as="geometry" />
        </mxCell>
        <mxCell id="v6JsbG-RQpuHxTzYnyNn-41" value="" style="edgeStyle=orthogonalEdgeStyle;rounded=0;orthogonalLoop=1;jettySize=auto;html=1;" parent="1" source="v6JsbG-RQpuHxTzYnyNn-39" target="v6JsbG-RQpuHxTzYnyNn-6" edge="1">
          <mxGeometry relative="1" as="geometry" />
        </mxCell>
        <mxCell id="v6JsbG-RQpuHxTzYnyNn-39" value="拥有" style="rhombus;whiteSpace=wrap;html=1;" parent="1" vertex="1">
          <mxGeometry x="360" y="250" width="80" height="80" as="geometry" />
        </mxCell>
        <mxCell id="v6JsbG-RQpuHxTzYnyNn-44" style="edgeStyle=orthogonalEdgeStyle;rounded=0;orthogonalLoop=1;jettySize=auto;html=1;entryX=0.5;entryY=0;entryDx=0;entryDy=0;" parent="1" source="v6JsbG-RQpuHxTzYnyNn-42" target="v6JsbG-RQpuHxTzYnyNn-4" edge="1">
          <mxGeometry relative="1" as="geometry" />
        </mxCell>
        <mxCell id="v6JsbG-RQpuHxTzYnyNn-42" value="拥有" style="rhombus;whiteSpace=wrap;html=1;" parent="1" vertex="1">
          <mxGeometry x="360" y="460" width="80" height="80" as="geometry" />
        </mxCell>
        <mxCell id="9mAPD-nLS6WDaZFYtEga-1" value="1" style="text;html=1;align=center;verticalAlign=middle;resizable=0;points=[];autosize=1;strokeColor=none;fillColor=none;" vertex="1" parent="1">
          <mxGeometry x="655" y="-10" width="30" height="30" as="geometry" />
        </mxCell>
        <mxCell id="9mAPD-nLS6WDaZFYtEga-2" value="n" style="text;html=1;align=center;verticalAlign=middle;resizable=0;points=[];autosize=1;strokeColor=none;fillColor=none;" vertex="1" parent="1">
          <mxGeometry x="655" y="110" width="30" height="30" as="geometry" />
        </mxCell>
        <mxCell id="9mAPD-nLS6WDaZFYtEga-3" value="1" style="text;html=1;align=center;verticalAlign=middle;resizable=0;points=[];autosize=1;strokeColor=none;fillColor=none;" vertex="1" parent="1">
          <mxGeometry x="395" y="-2" width="30" height="30" as="geometry" />
        </mxCell>
        <mxCell id="9mAPD-nLS6WDaZFYtEga-4" value="n" style="text;html=1;align=center;verticalAlign=middle;resizable=0;points=[];autosize=1;strokeColor=none;fillColor=none;" vertex="1" parent="1">
          <mxGeometry x="395" y="118" width="30" height="30" as="geometry" />
        </mxCell>
        <mxCell id="9mAPD-nLS6WDaZFYtEga-5" value="1" style="text;html=1;align=center;verticalAlign=middle;resizable=0;points=[];autosize=1;strokeColor=none;fillColor=none;" vertex="1" parent="1">
          <mxGeometry x="305" y="158" width="30" height="30" as="geometry" />
        </mxCell>
        <mxCell id="9mAPD-nLS6WDaZFYtEga-6" value="1" style="text;html=1;align=center;verticalAlign=middle;resizable=0;points=[];autosize=1;strokeColor=none;fillColor=none;" vertex="1" parent="1">
          <mxGeometry x="205" y="158" width="30" height="30" as="geometry" />
        </mxCell>
        <mxCell id="9mAPD-nLS6WDaZFYtEga-7" value="1" style="text;html=1;align=center;verticalAlign=middle;resizable=0;points=[];autosize=1;strokeColor=none;fillColor=none;" vertex="1" parent="1">
          <mxGeometry x="405" y="228" width="30" height="30" as="geometry" />
        </mxCell>
        <mxCell id="9mAPD-nLS6WDaZFYtEga-8" value="n" style="text;html=1;align=center;verticalAlign=middle;resizable=0;points=[];autosize=1;strokeColor=none;fillColor=none;" vertex="1" parent="1">
          <mxGeometry x="405" y="328" width="30" height="30" as="geometry" />
        </mxCell>
        <mxCell id="9mAPD-nLS6WDaZFYtEga-9" value="1" style="text;html=1;align=center;verticalAlign=middle;resizable=0;points=[];autosize=1;strokeColor=none;fillColor=none;" vertex="1" parent="1">
          <mxGeometry x="405" y="438" width="30" height="30" as="geometry" />
        </mxCell>
        <mxCell id="9mAPD-nLS6WDaZFYtEga-10" value="n" style="text;html=1;align=center;verticalAlign=middle;resizable=0;points=[];autosize=1;strokeColor=none;fillColor=none;" vertex="1" parent="1">
          <mxGeometry x="415" y="518" width="30" height="30" as="geometry" />
        </mxCell>
        <mxCell id="9mAPD-nLS6WDaZFYtEga-12" value="1" style="text;html=1;align=center;verticalAlign=middle;resizable=0;points=[];autosize=1;strokeColor=none;fillColor=none;" vertex="1" parent="1">
          <mxGeometry x="345" y="518" width="30" height="30" as="geometry" />
        </mxCell>
        <mxCell id="9mAPD-nLS6WDaZFYtEga-13" value="1" style="text;html=1;align=center;verticalAlign=middle;resizable=0;points=[];autosize=1;strokeColor=none;fillColor=none;" vertex="1" parent="1">
          <mxGeometry x="235" y="638" width="30" height="30" as="geometry" />
        </mxCell>
        <mxCell id="9mAPD-nLS6WDaZFYtEga-14" value="1" style="text;html=1;align=center;verticalAlign=middle;resizable=0;points=[];autosize=1;strokeColor=none;fillColor=none;" vertex="1" parent="1">
          <mxGeometry x="470" y="638" width="30" height="30" as="geometry" />
        </mxCell>
        <mxCell id="9mAPD-nLS6WDaZFYtEga-15" value="n" style="text;html=1;align=center;verticalAlign=middle;resizable=0;points=[];autosize=1;strokeColor=none;fillColor=none;" vertex="1" parent="1">
          <mxGeometry x="345" y="668" width="30" height="30" as="geometry" />
        </mxCell>
        <mxCell id="9mAPD-nLS6WDaZFYtEga-16" value="1" style="text;html=1;align=center;verticalAlign=middle;resizable=0;points=[];autosize=1;strokeColor=none;fillColor=none;" vertex="1" parent="1">
          <mxGeometry x="465" y="368" width="30" height="30" as="geometry" />
        </mxCell>
        <mxCell id="9mAPD-nLS6WDaZFYtEga-17" value="n" style="text;html=1;align=center;verticalAlign=middle;resizable=0;points=[];autosize=1;strokeColor=none;fillColor=none;" vertex="1" parent="1">
          <mxGeometry x="545" y="368" width="30" height="30" as="geometry" />
        </mxCell>
      </root>
    </mxGraphModel>
  </diagram>
</mxfile>
